NotoSerifTamilSlanted-Thin.ufo
<glyph name="parenleft" format="2">
  <advance width="277"/>
  <unicode hex="0028"/>
  <outline>
    <contour>
      <point x="154" y="-114" type="curve"/>
      <point x="160" y="-89" type="line"/>
      <point x="98" y="-37"/>
      <point x="70" y="81"/>
      <point x="70" y="200" type="curve" smooth="yes"/>
      <point x="70" y="393"/>
      <point x="156" y="632"/>
      <point x="335" y="719" type="curve"/>
      <point x="341" y="744" type="line"/>
      <point x="127" y="656"/>
      <point x="42" y="403"/>
      <point x="42" y="199" type="curve" smooth="yes"/>
      <point x="42" y="53"/>
      <point x="76" y="-58"/>
    </contour>
  </outline>
</glyph>
<glyph name="comma" format="2">
  <advance width="181"/>
  <unicode hex="002C"/>
  <outline>
    <contour>
      <point x="-47" y="-140" type="line"/>
      <point x="46" y="-116"/>
      <point x="66" y="-53"/>
      <point x="66" y="15" type="curve" smooth="yes"/>
      <point x="66" y="51"/>
      <point x="52" y="73"/>
      <point x="32" y="73" type="curve" smooth="yes"/>
      <point x="12" y="73"/>
      <point x="2" y="59"/>
      <point x="2" y="42" type="curve" smooth="yes"/>
      <point x="2" y="11"/>
      <point x="37" y="12"/>
      <point x="37" y="-22" type="curve" smooth="yes"/>
      <point x="37" y="-62"/>
      <point x="12" y="-102"/>
      <point x="-50" y="-120" type="curve"/>
    </contour>
  </outline>
</glyph>
<glyph name="zero" format="2">
  <advance width="511"/>
  <unicode hex="0030"/>
  <outline>
    <contour>
      <point x="201" y="-11" type="curve" smooth="yes"/>
      <point x="424" y="-11"/>
      <point x="492" y="283"/>
      <point x="492" y="490" type="curve" smooth="yes"/>
      <point x="492" y="662"/>
      <point x="421" y="723"/>
      <point x="330" y="723" type="curve" smooth="yes"/>
      <point x="121" y="723"/>
      <point x="41" y="418"/>
      <point x="41" y="219" type="curve" smooth="yes"/>
      <point x="41" y="66"/>
      <point x="101" y="-11"/>
    </contour>
    <contour>
      <point x="206" y="14" type="curve" smooth="yes"/>
      <point x="120" y="14"/>
      <point x="69" y="81"/>
      <point x="69" y="221" type="curve" smooth="yes"/>
      <point x="69" y="399"/>
      <point x="139" y="698"/>
      <point x="329" y="698" type="curve" smooth="yes"/>
      <point x="406" y="698"/>
      <point x="464" y="644"/>
      <point x="464" y="485" type="curve" smooth="yes"/>
      <point x="464" y="302"/>
      <point x="398" y="14"/>
    </contour>
  </outline>
</glyph>
<glyph name="two" format="2">
  <advance width="511"/>
  <unicode hex="0032"/>
  <outline>
    <contour>
      <point x="-1" y="0" type="line"/>
      <point x="381" y="0" type="line"/>
      <point x="409" y="130" type="line"/>
      <point x="389" y="130" type="line"/>
      <point x="376" y="82" type="line" smooth="yes"/>
      <point x="362" y="31"/>
      <point x="356" y="25"/>
      <point x="300" y="25" type="curve" smooth="yes"/>
      <point x="33" y="25" type="line"/>
      <point x="272" y="250" type="line" smooth="yes"/>
      <point x="409" y="379"/>
      <point x="462" y="461"/>
      <point x="462" y="570" type="curve" smooth="yes"/>
      <point x="462" y="664"/>
      <point x="398" y="724"/>
      <point x="296" y="724" type="curve" smooth="yes"/>
      <point x="178" y="724"/>
      <point x="117" y="643"/>
      <point x="117" y="586" type="curve" smooth="yes"/>
      <point x="117" y="570"/>
      <point x="125" y="562"/>
      <point x="142" y="562" type="curve"/>
      <point x="142" y="635"/>
      <point x="194" y="699"/>
      <point x="296" y="699" type="curve" smooth="yes"/>
      <point x="380" y="699"/>
      <point x="434" y="650"/>
      <point x="434" y="570" type="curve" smooth="yes"/>
      <point x="434" y="462"/>
      <point x="375" y="383"/>
      <point x="254" y="268" type="curve" smooth="yes"/>
      <point x="8" y="35" type="line"/>
    </contour>
  </outline>
</glyph>
<glyph name="four" format="2">
  <advance width="511"/>
  <unicode hex="0034"/>
  <outline>
    <contour>
      <point x="126" y="0" type="line"/>
      <point x="418" y="0" type="line"/>
      <point x="423" y="20" type="line"/>
      <point x="362" y="20" type="line" smooth="yes"/>
      <point x="318" y="20"/>
      <point x="312" y="23"/>
      <point x="312" y="50" type="curve" smooth="yes"/>
      <point x="312" y="56"/>
      <point x="314" y="70"/>
      <point x="317" y="84" type="curve" smooth="yes"/>
      <point x="450" y="714" type="line"/>
      <point x="412" y="714" type="line"/>
      <point x="19" y="231" type="line"/>
      <point x="15" y="214" type="line"/>
      <point x="473" y="214" type="line"/>
      <point x="478" y="239" type="line"/>
      <point x="61" y="239" type="line"/>
      <point x="61" y="243" type="line"/>
      <point x="331" y="579" type="line" smooth="yes"/>
      <point x="365" y="622"/>
      <point x="407" y="672"/>
      <point x="421" y="692" type="curve"/>
      <point x="404" y="630"/>
      <point x="393" y="575"/>
      <point x="378" y="506" type="curve" smooth="yes"/>
      <point x="289" y="84" type="line" smooth="yes"/>
      <point x="277" y="26"/>
      <point x="272" y="20"/>
      <point x="219" y="20" type="curve" smooth="yes"/>
      <point x="131" y="20" type="line"/>
    </contour>
  </outline>
</glyph>
<glyph name="six" format="2">
  <advance width="511"/>
  <unicode hex="0036"/>
  <outline>
    <contour>
      <point x="239" y="-10" type="curve" smooth="yes"/>
      <point x="378" y="-10"/>
      <point x="447" y="118"/>
      <point x="447" y="257" type="curve" smooth="yes"/>
      <point x="447" y="350"/>
      <point x="390" y="428"/>
      <point x="282" y="428" type="curve" smooth="yes"/>
      <point x="214" y="428"/>
      <point x="154" y="403"/>
      <point x="111" y="364" type="curve"/>
      <point x="141" y="555"/>
      <point x="258" y="699"/>
      <point x="379" y="699" type="curve" smooth="yes"/>
      <point x="455" y="699"/>
      <point x="480" y="653"/>
      <point x="480" y="592" type="curve"/>
      <point x="500" y="592"/>
      <point x="507" y="608"/>
      <point x="507" y="620" type="curve" smooth="yes"/>
      <point x="507" y="670"/>
      <point x="464" y="724"/>
      <point x="385" y="724" type="curve" smooth="yes"/>
      <point x="215" y="724"/>
      <point x="70" y="521"/>
      <point x="70" y="224" type="curve" smooth="yes"/>
      <point x="70" y="68"/>
      <point x="136" y="-10"/>
    </contour>
    <contour>
      <point x="240" y="15" type="curve" smooth="yes"/>
      <point x="152" y="15"/>
      <point x="98" y="87"/>
      <point x="98" y="224" type="curve" smooth="yes"/>
      <point x="98" y="254"/>
      <point x="99" y="289"/>
      <point x="107" y="332" type="curve"/>
      <point x="162" y="381"/>
      <point x="222" y="403"/>
      <point x="282" y="403" type="curve" smooth="yes"/>
      <point x="362" y="403"/>
      <point x="419" y="345"/>
      <point x="419" y="255" type="curve" smooth="yes"/>
      <point x="419" y="133"/>
      <point x="354" y="15"/>
    </contour>
  </outline>
</glyph>
<glyph name="seven" format="2">
  <advance width="511"/>
  <unicode hex="0037"/>
  <outline>
    <contour>
      <point x="144" y="0" type="line"/>
      <point x="173" y="0" type="line"/>
      <point x="526" y="692" type="line"/>
      <point x="531" y="714" type="line"/>
      <point x="141" y="714" type="line"/>
      <point x="102" y="569" type="line"/>
      <point x="122" y="569" type="line"/>
      <point x="142" y="636" type="line" smooth="yes"/>
      <point x="157" y="686"/>
      <point x="161" y="689"/>
      <point x="205" y="689" type="curve" smooth="yes"/>
      <point x="499" y="689" type="line"/>
    </contour>
  </outline>
</glyph>
<glyph name="less" format="2">
  <advance width="559"/>
  <unicode hex="003C"/>
  <outline>
    <contour>
      <point x="494" y="118" type="line"/>
      <point x="494" y="149" type="line"/>
      <point x="95" y="357" type="line"/>
      <point x="494" y="567" type="line"/>
      <point x="494" y="598" type="line"/>
      <point x="65" y="371" type="line"/>
      <point x="65" y="344" type="line"/>
    </contour>
  </outline>
</glyph>
<glyph name="bracketleft" format="2">
  <advance width="290"/>
  <unicode hex="005B"/>
  <outline>
    <contour>
      <point x="-16" y="-128" type="line"/>
      <point x="139" y="-128" type="line"/>
      <point x="144" y="-108" type="line"/>
      <point x="71" y="-108" type="line" smooth="yes"/>
      <point x="25" y="-108"/>
      <point x="21" y="-104"/>
      <point x="21" y="-89" type="curve" smooth="yes"/>
      <point x="21" y="-79"/>
      <point x="24" y="-63"/>
      <point x="28" y="-44" type="curve" smooth="yes"/>
      <point x="181" y="674" type="line" smooth="yes"/>
      <point x="194" y="737"/>
      <point x="198" y="740"/>
      <point x="255" y="740" type="curve" smooth="yes"/>
      <point x="322" y="740" type="line"/>
      <point x="327" y="760" type="line"/>
      <point x="172" y="760" type="line"/>
    </contour>
  </outline>
</glyph>
<glyph name="asciicircum" format="2">
  <advance width="559"/>
  <unicode hex="005E"/>
  <outline>
    <contour>
      <point x="57" y="272" type="line"/>
      <point x="88" y="272" type="line"/>
      <point x="278" y="679" type="line"/>
      <point x="470" y="272" type="line"/>
      <point x="501" y="272" type="line"/>
      <point x="290" y="714" type="line"/>
      <point x="265" y="714" type="line"/>
    </contour>
  </outline>
</glyph>
<glyph name="braceleft" format="2">
  <advance width="410"/>
  <unicode hex="007B"/>
  <outline>
    <contour>
      <point x="224" y="-132" type="curve" smooth="yes"/>
      <point x="268" y="-132" type="line"/>
      <point x="273" y="-107" type="line"/>
      <point x="228" y="-107" type="line" smooth="yes"/>
      <point x="188" y="-107"/>
      <point x="166" y="-91"/>
      <point x="166" y="-41" type="curve" smooth="yes"/>
      <point x="166" y="-23"/>
      <point x="169" y="-2"/>
      <point x="173" y="17" type="curve" smooth="yes"/>
      <point x="205" y="165" type="line" smooth="yes"/>
      <point x="210" y="188"/>
      <point x="213" y="208"/>
      <point x="213" y="230" type="curve" smooth="yes"/>
      <point x="213" y="272"/>
      <point x="192" y="308"/>
      <point x="138" y="312" type="curve"/>
      <point x="138" y="315" type="line"/>
      <point x="215" y="322"/>
      <point x="247" y="368"/>
      <point x="263" y="442" type="curve" smooth="yes"/>
      <point x="300" y="616" type="line" smooth="yes"/>
      <point x="322" y="718"/>
      <point x="338" y="735"/>
      <point x="412" y="735" type="curve" smooth="yes"/>
      <point x="437" y="735" type="line"/>
      <point x="442" y="760" type="line"/>
      <point x="415" y="760" type="line" smooth="yes"/>
      <point x="324" y="760"/>
      <point x="298" y="733"/>
      <point x="274" y="620" type="curve" smooth="yes"/>
      <point x="237" y="445" type="line" smooth="yes"/>
      <point x="218" y="355"/>
      <point x="171" y="332"/>
      <point x="90" y="327" type="curve"/>
      <point x="85" y="302" type="line"/>
      <point x="164" y="298"/>
      <point x="187" y="278"/>
      <point x="187" y="229" type="curve" smooth="yes"/>
      <point x="187" y="209"/>
      <point x="182" y="187"/>
      <point x="177" y="165" type="curve" smooth="yes"/>
      <point x="145" y="17" type="line" smooth="yes"/>
      <point x="141" y="-3"/>
      <point x="138" y="-23"/>
      <point x="138" y="-41" type="curve" smooth="yes"/>
      <point x="138" y="-102"/>
      <point x="168" y="-132"/>
    </contour>
  </outline>
</glyph>
<glyph name="ai-tamil" format="2">
  <advance width="937"/>
  <unicode hex="0B90"/>
  <note>
uni0B90
</note>
  <anchor x="424" y="0" name="bottom"/>
  <anchor x="365" y="-278" name="nukta"/>
  <anchor x="541" y="542" name="top"/>
  <anchor x="542" y="542" name="vedic"/>
  <outline>
    <contour>
      <point x="162" y="-278" type="curve" smooth="yes"/>
      <point x="284" y="-278"/>
      <point x="360" y="-209"/>
      <point x="403" y="-141" type="curve"/>
      <point x="411" y="-210"/>
      <point x="466" y="-278"/>
      <point x="570" y="-278" type="curve" smooth="yes"/>
      <point x="707" y="-278"/>
      <point x="796" y="-193"/>
      <point x="796" y="-58" type="curve" smooth="yes"/>
      <point x="796" y="-12"/>
      <point x="780" y="37"/>
      <point x="758" y="80" type="curve"/>
      <point x="731" y="65" type="line"/>
      <point x="748" y="32"/>
      <point x="766" y="-16"/>
      <point x="766" y="-61" type="curve" smooth="yes"/>
      <point x="766" y="-175"/>
      <point x="687" y="-254"/>
      <point x="573" y="-254" type="curve" smooth="yes"/>
      <point x="454" y="-254"/>
      <point x="409" y="-171"/>
      <point x="431" y="-62" type="curve" smooth="yes"/>
      <point x="442" y="-8" type="line"/>
      <point x="418" y="-8" type="line"/>
      <point x="402" y="-79" type="line" smooth="yes"/>
      <point x="385" y="-154"/>
      <point x="291" y="-254"/>
      <point x="167" y="-254" type="curve" smooth="yes"/>
      <point x="71" y="-254"/>
      <point x="23" y="-202"/>
      <point x="23" y="-115" type="curve" smooth="yes"/>
      <point x="23" y="55"/>
      <point x="197" y="70"/>
      <point x="443" y="91" type="curve" smooth="yes"/>
      <point x="689" y="112"/>
      <point x="886" y="160"/>
      <point x="886" y="386" type="curve" smooth="yes"/>
      <point x="886" y="496"/>
      <point x="811" y="551"/>
      <point x="717" y="551" type="curve" smooth="yes"/>
      <point x="609" y="551"/>
      <point x="547" y="484"/>
      <point x="511" y="414" type="curve"/>
      <point x="495" y="488"/>
      <point x="436" y="551"/>
      <point x="317" y="551" type="curve" smooth="yes"/>
      <point x="177" y="551"/>
      <point x="72" y="449"/>
      <point x="72" y="314" type="curve" smooth="yes"/>
      <point x="72" y="238"/>
      <point x="119" y="164"/>
      <point x="204" y="164" type="curve" smooth="yes"/>
      <point x="275" y="164"/>
      <point x="338" y="211"/>
      <point x="338" y="296" type="curve" smooth="yes"/>
      <point x="338" y="352"/>
      <point x="301" y="398"/>
      <point x="235" y="398" type="curve" smooth="yes"/>
      <point x="159" y="398"/>
      <point x="114" y="336"/>
      <point x="87" y="269" type="curve"/>
      <point x="100" y="248" type="line"/>
      <point x="131" y="319"/>
      <point x="169" y="374"/>
      <point x="230" y="374" type="curve" smooth="yes"/>
      <point x="283" y="374"/>
      <point x="310" y="340"/>
      <point x="310" y="294" type="curve" smooth="yes"/>
      <point x="310" y="232"/>
      <point x="265" y="190"/>
      <point x="205" y="190" type="curve" smooth="yes"/>
      <point x="132" y="190"/>
      <point x="99" y="251"/>
      <point x="99" y="315" type="curve" smooth="yes"/>
      <point x="99" y="432"/>
      <point x="191" y="526"/>
      <point x="312" y="526" type="curve" smooth="yes"/>
      <point x="433" y="526"/>
      <point x="510" y="447"/>
      <point x="486" y="335" type="curve"/>
      <point x="460" y="208" type="line"/>
      <point x="484" y="208" type="line"/>
      <point x="514" y="352" type="line" smooth="yes"/>
      <point x="530" y="427"/>
      <point x="601" y="527"/>
      <point x="713" y="527" type="curve" smooth="yes"/>
      <point x="795" y="527"/>
      <point x="855" y="476"/>
      <point x="855" y="382" type="curve" smooth="yes"/>
      <point x="855" y="176"/>
      <point x="683" y="134"/>
      <point x="436" y="113" type="curve" smooth="yes"/>
      <point x="181" y="92"/>
      <point x="-6" y="67"/>
      <point x="-6" y="-117" type="curve" smooth="yes"/>
      <point x="-6" y="-214"/>
      <point x="59" y="-278"/>
    </contour>
  </outline>
</glyph>
<glyph name="ra-tamil" format="2">
  <advance width="673"/>
  <unicode hex="0BB0"/>
  <note>
uni0BB0
</note>
  <anchor x="309" y="0" name="bottom"/>
  <anchor x="647" y="542" name="imatra"/>
  <anchor x="271" y="-165" name="nukta"/>
  <anchor x="440" y="542" name="top"/>
  <anchor x="444" y="542" name="vedic"/>
  <outline>
    <contour>
      <point x="157" y="-208" type="line"/>
      <point x="392" y="-3" type="line"/>
      <point x="503" y="519" type="line"/>
      <point x="700" y="519" type="line"/>
      <point x="705" y="542" type="line"/>
      <point x="186" y="542" type="line"/>
      <point x="71" y="0" type="line"/>
      <point x="96" y="0" type="line"/>
      <point x="206" y="519" type="line"/>
      <point x="475" y="519" type="line"/>
      <point x="367" y="10" type="line"/>
      <point x="140" y="-188" type="line"/>
    </contour>
  </outline>
</glyph>
<glyph name="llla-tamil" format="2">
  <advance width="885"/>
  <unicode hex="0BB4"/>
  <note>
uni0BB4
</note>
  <anchor x="399" y="0" name="bottom"/>
  <anchor x="338" y="-286" name="nukta"/>
  <anchor x="532" y="542" name="top"/>
  <anchor x="531" y="542" name="vedic"/>
  <anchor x="866" y="542" name="imatra"/>
  <outline>
    <contour>
      <point x="206" y="-330" type="curve" smooth="yes"/>
      <point x="355" y="-330"/>
      <point x="419" y="-151"/>
      <point x="598" y="-151" type="curve" smooth="yes"/>
      <point x="652" y="-151" type="line"/>
      <point x="657" y="-128" type="line"/>
      <point x="600" y="-128" type="line" smooth="yes"/>
      <point x="495" y="-128"/>
      <point x="402" y="-92"/>
      <point x="423" y="5" type="curve" smooth="yes"/>
      <point x="432" y="47" type="line"/>
      <point x="405" y="47" type="line"/>
      <point x="395" y="5" type="line" smooth="yes"/>
      <point x="374" y="-83"/>
      <point x="439" y="-123"/>
      <point x="529" y="-138" type="curve"/>
      <point x="528" y="-143" type="line"/>
      <point x="380" y="-165"/>
      <point x="327" y="-303"/>
      <point x="202" y="-303" type="curve" smooth="yes"/>
      <point x="140" y="-303"/>
      <point x="106" y="-262"/>
      <point x="106" y="-210" type="curve" smooth="yes"/>
      <point x="106" y="-152"/>
      <point x="146" y="-107"/>
      <point x="206" y="-107" type="curve" smooth="yes"/>
      <point x="244" y="-107"/>
      <point x="275" y="-124"/>
      <point x="302" y="-153" type="curve"/>
      <point x="322" y="-135" type="line"/>
      <point x="289" y="-98"/>
      <point x="248" y="-83"/>
      <point x="205" y="-83" type="curve" smooth="yes"/>
      <point x="130" y="-83"/>
      <point x="78" y="-142"/>
      <point x="78" y="-215" type="curve" smooth="yes"/>
      <point x="78" y="-279"/>
      <point x="127" y="-330"/>
    </contour>
    <component base="ma-tamil"/>
  </outline>
</glyph>
<glyph name="one-tamil" format="2">
  <advance width="768"/>
  <unicode hex="0BE7"/>
  <note>
uni0BE7
</note>
  <outline>
    <contour>
      <point x="195" y="-4" type="curve" smooth="yes"/>
      <point x="302" y="-4"/>
      <point x="366" y="56"/>
      <point x="394" y="182" type="curve" smooth="yes"/>
      <point x="415" y="275" type="line"/>
      <point x="511" y="275" type="line" smooth="yes"/>
      <point x="613" y="275"/>
      <point x="653" y="230"/>
      <point x="653" y="159" type="curve" smooth="yes"/>
      <point x="653" y="72"/>
      <point x="583" y="21"/>
      <point x="499" y="21" type="curve" smooth="yes"/>
      <point x="422" y="21"/>
      <point x="380" y="59"/>
      <point x="355" y="99" type="curve"/>
      <point x="334" y="79" type="line"/>
      <point x="361" y="40"/>
      <point x="410" y="-4"/>
      <point x="500" y="-4" type="curve" smooth="yes"/>
      <point x="600" y="-4"/>
      <point x="681" y="56"/>
      <point x="681" y="160" type="curve" smooth="yes"/>
      <point x="681" y="244"/>
      <point x="628" y="299"/>
      <point x="515" y="299" type="curve" smooth="yes"/>
      <point x="420" y="299" type="line"/>
      <point x="467" y="519" type="line"/>
      <point x="643" y="519" type="line"/>
      <point x="648" y="542" type="line"/>
      <point x="221" y="542" type="line"/>
      <point x="166" y="284" type="line"/>
      <point x="191" y="284" type="line"/>
      <point x="241" y="519" type="line"/>
      <point x="439" y="519" type="line"/>
      <point x="392" y="299" type="line"/>
      <point x="236" y="299" type="line" smooth="yes"/>
      <point x="118" y="299"/>
      <point x="38" y="232"/>
      <point x="38" y="135" type="curve" smooth="yes"/>
      <point x="38" y="52"/>
      <point x="99" y="-4"/>
    </contour>
    <contour>
      <point x="196" y="21" type="curve" smooth="yes"/>
      <point x="119" y="21"/>
      <point x="72" y="65"/>
      <point x="72" y="139" type="curve" smooth="yes"/>
      <point x="72" y="215"/>
      <point x="128" y="275"/>
      <point x="234" y="275" type="curve" smooth="yes"/>
      <point x="387" y="275" type="line"/>
      <point x="366" y="179" type="line" smooth="yes"/>
      <point x="345" y="81"/>
      <point x="287" y="21"/>
    </contour>
  </outline>
</glyph>
<glyph name="three-tamil" format="2">
  <advance width="897"/>
  <unicode hex="0BE9"/>
  <note>
uni0BE9
</note>
  <outline>
    <contour>
      <point x="71" y="0" type="line"/>
      <point x="96" y="0" type="line"/>
      <point x="206" y="519" type="line"/>
      <point x="433" y="519" type="line"/>
      <point x="362" y="188" type="line"/>
      <point x="391" y="188" type="line"/>
      <point x="394" y="203" type="line" smooth="yes"/>
      <point x="405" y="254"/>
      <point x="453" y="332"/>
      <point x="541" y="332" type="curve" smooth="yes"/>
      <point x="606" y="332"/>
      <point x="641" y="292"/>
      <point x="641" y="231" type="curve" smooth="yes"/>
      <point x="641" y="110"/>
      <point x="517" y="23"/>
      <point x="407" y="23" type="curve" smooth="yes"/>
      <point x="327" y="23" type="line"/>
      <point x="322" y="0" type="line"/>
      <point x="810" y="0" type="line"/>
      <point x="815" y="23" type="line"/>
      <point x="503" y="23" type="line"/>
      <point x="597" y="56"/>
      <point x="672" y="133"/>
      <point x="672" y="232" type="curve" smooth="yes"/>
      <point x="672" y="311"/>
      <point x="621" y="355"/>
      <point x="547" y="355" type="curve" smooth="yes"/>
      <point x="474" y="355"/>
      <point x="433" y="313"/>
      <point x="412" y="282" type="curve"/>
      <point x="461" y="519" type="line"/>
      <point x="649" y="519" type="line"/>
      <point x="654" y="542" type="line"/>
      <point x="186" y="542" type="line"/>
    </contour>
  </outline>
</glyph>
<glyph name="four-tamil" format="2">
  <advance width="788"/>
  <unicode hex="0BEA"/>
  <note>
uni0BEA
</note>
  <outline>
    <contour>
      <point x="195" y="-4" type="curve" smooth="yes"/>
      <point x="302" y="-4"/>
      <point x="366" y="56"/>
      <point x="394" y="182" type="curve" smooth="yes"/>
      <point x="415" y="275" type="line"/>
      <point x="730" y="275" type="line"/>
      <point x="787" y="542" type="line"/>
      <point x="762" y="542" type="line"/>
      <point x="710" y="299" type="line"/>
      <point x="420" y="299" type="line"/>
      <point x="467" y="519" type="line"/>
      <point x="641" y="519" type="line"/>
      <point x="646" y="542" type="line"/>
      <point x="221" y="542" type="line"/>
      <point x="166" y="284" type="line"/>
      <point x="191" y="284" type="line"/>
      <point x="241" y="519" type="line"/>
      <point x="439" y="519" type="line"/>
      <point x="392" y="299" type="line"/>
      <point x="236" y="299" type="line" smooth="yes"/>
      <point x="118" y="299"/>
      <point x="38" y="232"/>
      <point x="38" y="135" type="curve" smooth="yes"/>
      <point x="38" y="52"/>
      <point x="99" y="-4"/>
    </contour>
    <contour>
      <point x="196" y="21" type="curve" smooth="yes"/>
      <point x="119" y="21"/>
      <point x="72" y="65"/>
      <point x="72" y="139" type="curve" smooth="yes"/>
      <point x="72" y="215"/>
      <point x="128" y="275"/>
      <point x="234" y="275" type="curve" smooth="yes"/>
      <point x="387" y="275" type="line"/>
      <point x="366" y="179" type="line" smooth="yes"/>
      <point x="345" y="81"/>
      <point x="287" y="21"/>
    </contour>
  </outline>
</glyph>
<glyph name="six-tamil" format="2">
  <advance width="985"/>
  <unicode hex="0BEC"/>
  <note>
uni0BEC
</note>
  <outline>
    <contour>
      <point x="195" y="-4" type="curve" smooth="yes"/>
      <point x="302" y="-4"/>
      <point x="366" y="56"/>
      <point x="394" y="182" type="curve" smooth="yes"/>
      <point x="415" y="275" type="line"/>
      <point x="558" y="275" type="line" smooth="yes"/>
      <point x="590" y="275"/>
      <point x="609" y="255"/>
      <point x="602" y="222" type="curve" smooth="yes"/>
      <point x="555" y="0" type="line"/>
      <point x="578" y="0" type="line"/>
      <point x="625" y="222" type="line" smooth="yes"/>
      <point x="632" y="255"/>
      <point x="651" y="275"/>
      <point x="683" y="275" type="curve" smooth="yes"/>
      <point x="938" y="275" type="line"/>
      <point x="943" y="299" type="line"/>
      <point x="685" y="299" type="line" smooth="yes"/>
      <point x="653" y="299"/>
      <point x="633" y="287"/>
      <point x="620" y="263" type="curve"/>
      <point x="612" y="287"/>
      <point x="593" y="299"/>
      <point x="562" y="299" type="curve" smooth="yes"/>
      <point x="420" y="299" type="line"/>
      <point x="467" y="519" type="line"/>
      <point x="641" y="519" type="line"/>
      <point x="646" y="542" type="line"/>
      <point x="221" y="542" type="line"/>
      <point x="166" y="284" type="line"/>
      <point x="191" y="284" type="line"/>
      <point x="241" y="519" type="line"/>
      <point x="439" y="519" type="line"/>
      <point x="392" y="299" type="line"/>
      <point x="236" y="299" type="line" smooth="yes"/>
      <point x="118" y="299"/>
      <point x="38" y="232"/>
      <point x="38" y="135" type="curve" smooth="yes"/>
      <point x="38" y="52"/>
      <point x="99" y="-4"/>
    </contour>
    <contour>
      <point x="196" y="21" type="curve" smooth="yes"/>
      <point x="119" y="21"/>
      <point x="72" y="65"/>
      <point x="72" y="139" type="curve" smooth="yes"/>
      <point x="72" y="215"/>
      <point x="128" y="275"/>
      <point x="234" y="275" type="curve" smooth="yes"/>
      <point x="387" y="275" type="line"/>
      <point x="366" y="179" type="line" smooth="yes"/>
      <point x="345" y="81"/>
      <point x="287" y="21"/>
    </contour>
    <contour>
      <point x="763" y="0" type="line"/>
      <point x="788" y="0" type="line"/>
      <point x="849" y="288" type="line"/>
      <point x="825" y="288" type="line"/>
    </contour>
  </outline>
</glyph>
<glyph name="eight-tamil" format="2">
  <advance width="1265"/>
  <unicode hex="0BEE"/>
  <note>
uni0BEE
</note>
  <outline>
    <contour>
      <point x="1015" y="-165" type="line"/>
      <point x="1044" y="-165" type="line"/>
      <point x="1194" y="542" type="line"/>
      <point x="1165" y="542" type="line"/>
      <point x="1085" y="161" type="line"/>
      <point x="83" y="161" type="line" smooth="yes"/>
      <point x="36" y="161"/>
      <point x="9" y="137"/>
      <point x="9" y="96" type="curve" smooth="yes"/>
      <point x="9" y="16"/>
      <point x="160" y="-93"/>
      <point x="384" y="-93" type="curve" smooth="yes"/>
      <point x="669" y="-93"/>
      <point x="912" y="45"/>
      <point x="912" y="312" type="curve" smooth="yes"/>
      <point x="912" y="467"/>
      <point x="815" y="551"/>
      <point x="670" y="551" type="curve" smooth="yes"/>
      <point x="515" y="551"/>
      <point x="401" y="435"/>
      <point x="401" y="290" type="curve" smooth="yes"/>
      <point x="401" y="229"/>
      <point x="422" y="177"/>
      <point x="438" y="148" type="curve"/>
      <point x="470" y="148" type="line"/>
      <point x="447" y="180"/>
      <point x="426" y="229"/>
      <point x="426" y="286" type="curve" smooth="yes"/>
      <point x="426" y="417"/>
      <point x="530" y="527"/>
      <point x="668" y="527" type="curve" smooth="yes"/>
      <point x="792" y="527"/>
      <point x="881" y="452"/>
      <point x="881" y="307" type="curve" smooth="yes"/>
      <point x="881" y="59"/>
      <point x="638" y="-67"/>
      <point x="385" y="-67" type="curve" smooth="yes"/>
      <point x="191" y="-67"/>
      <point x="36" y="25"/>
      <point x="36" y="98" type="curve" smooth="yes"/>
      <point x="36" y="125"/>
      <point x="56" y="138"/>
      <point x="82" y="138" type="curve" smooth="yes"/>
      <point x="1080" y="138" type="line"/>
    </contour>
  </outline>
</glyph>
<glyph name="nine-tamil" format="2">
  <advance width="1178"/>
  <unicode hex="0BEF"/>
  <note>
uni0BEF
</note>
  <outline>
    <contour>
      <point x="964" y="-6" type="line"/>
      <point x="1047" y="52"/>
      <point x="1097" y="114"/>
      <point x="1097" y="218" type="curve" smooth="yes"/>
      <point x="1097" y="345"/>
      <point x="993" y="414"/>
      <point x="855" y="414" type="curve" smooth="yes"/>
      <point x="678" y="414"/>
      <point x="543" y="292"/>
      <point x="543" y="137" type="curve" smooth="yes"/>
      <point x="543" y="49"/>
      <point x="599" y="-4"/>
      <point x="676" y="-4" type="curve" smooth="yes"/>
      <point x="762" y="-4"/>
      <point x="841" y="56"/>
      <point x="841" y="155" type="curve" smooth="yes"/>
      <point x="841" y="271"/>
      <point x="748" y="299"/>
      <point x="627" y="299" type="curve" smooth="yes"/>
      <point x="420" y="299" type="line"/>
      <point x="467" y="519" type="line"/>
      <point x="641" y="519" type="line"/>
      <point x="646" y="542" type="line"/>
      <point x="221" y="542" type="line"/>
      <point x="166" y="284" type="line"/>
      <point x="191" y="284" type="line"/>
      <point x="241" y="519" type="line"/>
      <point x="439" y="519" type="line"/>
      <point x="392" y="299" type="line"/>
      <point x="236" y="299" type="line" smooth="yes"/>
      <point x="118" y="299"/>
      <point x="38" y="232"/>
      <point x="38" y="135" type="curve" smooth="yes"/>
      <point x="38" y="52"/>
      <point x="99" y="-4"/>
      <point x="195" y="-4" type="curve" smooth="yes"/>
      <point x="302" y="-4"/>
      <point x="366" y="56"/>
      <point x="394" y="182" type="curve" smooth="yes"/>
      <point x="415" y="275" type="line"/>
      <point x="622" y="275" type="line" smooth="yes"/>
      <point x="725" y="275"/>
      <point x="813" y="257"/>
      <point x="813" y="152" type="curve" smooth="yes"/>
      <point x="813" y="72"/>
      <point x="746" y="21"/>
      <point x="677" y="21" type="curve" smooth="yes"/>
      <point x="614" y="21"/>
      <point x="569" y="66"/>
      <point x="569" y="142" type="curve" smooth="yes"/>
      <point x="569" y="279"/>
      <point x="693" y="390"/>
      <point x="853" y="390" type="curve" smooth="yes"/>
      <point x="972" y="390"/>
      <point x="1068" y="331"/>
      <point x="1068" y="216" type="curve" smooth="yes"/>
      <point x="1068" y="130"/>
      <point x="1024" y="72"/>
      <point x="949" y="17" type="curve"/>
    </contour>
    <contour>
      <point x="196" y="21" type="curve" smooth="yes"/>
      <point x="119" y="21"/>
      <point x="72" y="65"/>
      <point x="72" y="139" type="curve" smooth="yes"/>
      <point x="72" y="215"/>
      <point x="128" y="275"/>
      <point x="234" y="275" type="curve" smooth="yes"/>
      <point x="387" y="275" type="line"/>
      <point x="366" y="179" type="line" smooth="yes"/>
      <point x="345" y="81"/>
      <point x="287" y="21"/>
    </contour>
  </outline>
</glyph>
<glyph name="month-tamil" format="2">
  <advance width="1048"/>
  <unicode hex="0BF4"/>
  <note>
uni0BF4
</note>
  <anchor x="395" y="0" name="bottom"/>
  <anchor x="866" y="542" name="imatra"/>
  <anchor x="396" y="0" name="nukta"/>
  <anchor x="532" y="542" name="top"/>
  <anchor x="531" y="542" name="vedic"/>
  <outline>
    <contour>
      <point x="752" y="469" type="curve"/>
      <point x="767" y="483" type="line"/>
      <point x="743" y="511"/>
      <point x="723" y="549"/>
      <point x="723" y="604" type="curve" smooth="yes"/>
      <point x="723" y="682"/>
      <point x="781" y="778"/>
      <point x="884" y="778" type="curve" smooth="yes"/>
      <point x="948" y="778"/>
      <point x="994" y="742"/>
      <point x="994" y="675" type="curve" smooth="yes"/>
      <point x="994" y="621"/>
      <point x="956" y="580"/>
      <point x="908" y="581" type="curve" smooth="yes"/>
      <point x="865" y="582"/>
      <point x="844" y="615"/>
      <point x="844" y="669" type="curve" smooth="yes"/>
      <point x="844" y="761"/>
      <point x="908" y="852"/>
      <point x="1018" y="852" type="curve" smooth="yes"/>
      <point x="1079" y="852"/>
      <point x="1141" y="818"/>
      <point x="1125" y="744" type="curve" smooth="yes"/>
      <point x="1087" y="563" type="line"/>
      <point x="1114" y="563" type="line"/>
      <point x="1152" y="740" type="line" smooth="yes"/>
      <point x="1167" y="810"/>
      <point x="1214" y="853"/>
      <point x="1269" y="849" type="curve"/>
      <point x="1276" y="875" type="line"/>
      <point x="1210" y="877"/>
      <point x="1172" y="841"/>
      <point x="1149" y="793" type="curve"/>
      <point x="1145" y="793" type="line"/>
      <point x="1130" y="848"/>
      <point x="1079" y="874"/>
      <point x="1020" y="874" type="curve" smooth="yes"/>
      <point x="899" y="874"/>
      <point x="819" y="772"/>
      <point x="819" y="666" type="curve" smooth="yes"/>
      <point x="819" y="604"/>
      <point x="850" y="560"/>
      <point x="908" y="560" type="curve" smooth="yes"/>
      <point x="971" y="560"/>
      <point x="1019" y="607"/>
      <point x="1019" y="679" type="curve" smooth="yes"/>
      <point x="1019" y="756"/>
      <point x="965" y="799"/>
      <point x="886" y="799" type="curve" smooth="yes"/>
      <point x="769" y="799"/>
      <point x="697" y="694"/>
      <point x="697" y="608" type="curve" smooth="yes"/>
      <point x="697" y="554"/>
      <point x="714" y="508"/>
    </contour>
    <component base="ma-tamil"/>
  </outline>
</glyph>
<glyph name="credit-tamil" format="2">
  <advance width="1450"/>
  <unicode hex="0BF7"/>
  <note>
uni0BF7
</note>
  <anchor x="379" y="0" name="bottom"/>
  <anchor x="380" y="0" name="nukta"/>
  <anchor x="497" y="542" name="top"/>
  <anchor x="497" y="542" name="vedic"/>
  <outline>
    <contour>
      <point x="864" y="-4" type="curve" smooth="yes"/>
      <point x="957" y="-4"/>
      <point x="1028" y="58"/>
      <point x="1028" y="157" type="curve" smooth="yes"/>
      <point x="1028" y="250"/>
      <point x="959" y="299"/>
      <point x="854" y="299" type="curve" smooth="yes"/>
      <point x="758" y="299"/>
      <point x="665" y="243"/>
      <point x="598" y="180" type="curve"/>
      <point x="591" y="144" type="line"/>
      <point x="674" y="224"/>
      <point x="760" y="275"/>
      <point x="852" y="275" type="curve" smooth="yes"/>
      <point x="938" y="275"/>
      <point x="1000" y="236"/>
      <point x="1000" y="154" type="curve" smooth="yes"/>
      <point x="1000" y="74"/>
      <point x="941" y="21"/>
      <point x="865" y="21" type="curve" smooth="yes"/>
      <point x="803" y="21"/>
      <point x="760" y="70"/>
      <point x="760" y="145" type="curve" smooth="yes"/>
      <point x="760" y="282"/>
      <point x="884" y="390"/>
      <point x="1044" y="390" type="curve" smooth="yes"/>
      <point x="1157" y="390"/>
      <point x="1251" y="332"/>
      <point x="1251" y="220" type="curve" smooth="yes"/>
      <point x="1251" y="138"/>
      <point x="1210" y="77"/>
      <point x="1137" y="19" type="curve"/>
      <point x="1143" y="0" type="line"/>
      <point x="1369" y="0" type="line"/>
      <point x="1374" y="23" type="line"/>
      <point x="1165" y="23" type="line"/>
      <point x="1170" y="16" type="line"/>
      <point x="1237" y="71"/>
      <point x="1280" y="131"/>
      <point x="1280" y="222" type="curve" smooth="yes"/>
      <point x="1280" y="346"/>
      <point x="1178" y="414"/>
      <point x="1046" y="414" type="curve" smooth="yes"/>
      <point x="869" y="414"/>
      <point x="734" y="295"/>
      <point x="734" y="140" type="curve" smooth="yes"/>
      <point x="734" y="53"/>
      <point x="788" y="-4"/>
    </contour>
    <component base="e-tamil"/>
  </outline>
</glyph>
<glyph name="asabove-tamil" format="2">
  <advance width="1782"/>
  <unicode hex="0BF8"/>
  <note>
uni0BF8
</note>
  <outline>
    <contour>
      <point x="634" y="-5" type="curve" smooth="yes"/>
      <point x="742" y="-5"/>
      <point x="848" y="91"/>
      <point x="848" y="299" type="curve" smooth="yes"/>
      <point x="848" y="504"/>
      <point x="694" y="636"/>
      <point x="484" y="636" type="curve" smooth="yes"/>
      <point x="234" y="636"/>
      <point x="54" y="437"/>
      <point x="54" y="210" type="curve" smooth="yes"/>
      <point x="54" y="74"/>
      <point x="118" y="-4"/>
      <point x="217" y="-4" type="curve" smooth="yes"/>
      <point x="307" y="-4"/>
      <point x="376" y="57"/>
      <point x="376" y="155" type="curve" smooth="yes"/>
      <point x="376" y="229"/>
      <point x="327" y="283"/>
      <point x="248" y="283" type="curve" smooth="yes"/>
      <point x="155" y="283"/>
      <point x="100" y="212"/>
      <point x="70" y="143" type="curve"/>
      <point x="81" y="118" type="line"/>
      <point x="117" y="192"/>
      <point x="165" y="258"/>
      <point x="243" y="258" type="curve" smooth="yes"/>
      <point x="315" y="258"/>
      <point x="347" y="213"/>
      <point x="347" y="153" type="curve" smooth="yes"/>
      <point x="347" y="74"/>
      <point x="289" y="21"/>
      <point x="219" y="21" type="curve" smooth="yes"/>
      <point x="132" y="21"/>
      <point x="81" y="89"/>
      <point x="81" y="212" type="curve" smooth="yes"/>
      <point x="81" y="426"/>
      <point x="257" y="612"/>
      <point x="483" y="612" type="curve" smooth="yes"/>
      <point x="681" y="612"/>
      <point x="819" y="489"/>
      <point x="819" y="295" type="curve" smooth="yes"/>
      <point x="819" y="107"/>
      <point x="721" y="21"/>
      <point x="635" y="21" type="curve" smooth="yes"/>
      <point x="565" y="21"/>
      <point x="524" y="79"/>
      <point x="524" y="167" type="curve" smooth="yes"/>
      <point x="524" y="319"/>
      <point x="657" y="527"/>
      <point x="877" y="527" type="curve" smooth="yes"/>
      <point x="1023" y="527"/>
      <point x="1137" y="454"/>
      <point x="1137" y="295" type="curve" smooth="yes"/>
      <point x="1137" y="176"/>
      <point x="1066" y="86"/>
      <point x="989" y="19" type="curve"/>
      <point x="995" y="0" type="line"/>
      <point x="1698" y="0" type="line"/>
      <point x="1703" y="23" type="line"/>
      <point x="1027" y="23" type="line"/>
      <point x="1095" y="80"/>
      <point x="1165" y="172"/>
      <point x="1165" y="298" type="curve" smooth="yes"/>
      <point x="1165" y="471"/>
      <point x="1046" y="551"/>
      <point x="878" y="551" type="curve" smooth="yes"/>
      <point x="635" y="551"/>
      <point x="497" y="329"/>
      <point x="497" y="159" type="curve" smooth="yes"/>
      <point x="497" y="65"/>
      <point x="548" y="-5"/>
    </contour>
    <contour>
      <point x="1455" y="-278" type="line"/>
      <point x="1483" y="-278" type="line"/>
      <point x="1630" y="417" type="line" smooth="yes"/>
      <point x="1648" y="503"/>
      <point x="1597" y="551"/>
      <point x="1522" y="551" type="curve" smooth="yes"/>
      <point x="1373" y="551"/>
      <point x="1290" y="390"/>
      <point x="1290" y="231" type="curve" smooth="yes"/>
      <point x="1290" y="109"/>
      <point x="1354" y="4"/>
      <point x="1507" y="4" type="curve"/>
      <point x="1511" y="23" type="line"/>
      <point x="1374" y="23"/>
      <point x="1317" y="122"/>
      <point x="1317" y="234" type="curve" smooth="yes"/>
      <point x="1317" y="375"/>
      <point x="1391" y="527"/>
      <point x="1521" y="527" type="curve" smooth="yes"/>
      <point x="1577" y="527"/>
      <point x="1617" y="488"/>
      <point x="1602" y="417" type="curve" smooth="yes"/>
    </contour>
  </outline>
</glyph>
<glyph name="quoteleft" format="2">
  <advance width="175"/>
  <unicode hex="2018"/>
  <outline>
    <contour>
      <point x="135" y="510" type="curve" smooth="yes"/>
      <point x="156" y="510"/>
      <point x="179" y="524"/>
      <point x="179" y="552" type="curve" smooth="yes"/>
      <point x="179" y="583"/>
      <point x="134" y="586"/>
      <point x="134" y="612" type="curve" smooth="yes"/>
      <point x="134" y="637"/>
      <point x="164" y="679"/>
      <point x="199" y="692" type="curve"/>
      <point x="193" y="708" type="line"/>
      <point x="136" y="681"/>
      <point x="95" y="619"/>
      <point x="95" y="557" type="curve" smooth="yes"/>
      <point x="95" y="524"/>
      <point x="113" y="510"/>
    </contour>
  </outline>
</glyph>
<glyph name="quoteright" format="2">
  <advance width="185"/>
  <unicode hex="2019"/>
  <outline>
    <contour>
      <point x="97" y="510" type="line"/>
      <point x="154" y="537"/>
      <point x="195" y="599"/>
      <point x="195" y="661" type="curve" smooth="yes"/>
      <point x="195" y="694"/>
      <point x="177" y="708"/>
      <point x="155" y="708" type="curve" smooth="yes"/>
      <point x="134" y="708"/>
      <point x="111" y="694"/>
      <point x="111" y="666" type="curve" smooth="yes"/>
      <point x="111" y="635"/>
      <point x="156" y="632"/>
      <point x="156" y="606" type="curve" smooth="yes"/>
      <point x="156" y="581"/>
      <point x="126" y="539"/>
      <point x="91" y="526" type="curve"/>
    </contour>
  </outline>
</glyph>
<glyph name="quotedblright" format="2">
  <advance width="325"/>
  <unicode hex="201D"/>
  <outline>
    <contour>
      <point x="237" y="510" type="line"/>
      <point x="294" y="537"/>
      <point x="335" y="599"/>
      <point x="335" y="661" type="curve" smooth="yes"/>
      <point x="335" y="694"/>
      <point x="317" y="708"/>
      <point x="295" y="708" type="curve" smooth="yes"/>
      <point x="274" y="708"/>
      <point x="251" y="694"/>
      <point x="251" y="666" type="curve" smooth="yes"/>
      <point x="251" y="635"/>
      <point x="296" y="632"/>
      <point x="296" y="606" type="curve" smooth="yes"/>
      <point x="296" y="581"/>
      <point x="266" y="539"/>
      <point x="231" y="526" type="curve"/>
    </contour>
    <contour>
      <point x="97" y="510" type="line"/>
      <point x="154" y="537"/>
      <point x="195" y="599"/>
      <point x="195" y="661" type="curve" smooth="yes"/>
      <point x="195" y="694"/>
      <point x="177" y="708"/>
      <point x="155" y="708" type="curve" smooth="yes"/>
      <point x="134" y="708"/>
      <point x="111" y="694"/>
      <point x="111" y="666" type="curve" smooth="yes"/>
      <point x="111" y="635"/>
      <point x="156" y="632"/>
      <point x="156" y="606" type="curve" smooth="yes"/>
      <point x="156" y="581"/>
      <point x="126" y="539"/>
      <point x="91" y="526" type="curve"/>
    </contour>
  </outline>
</glyph>
<glyph name="foursuperior" format="2">
  <advance width="380"/>
  <unicode hex="2074"/>
  <outline>
    <contour>
      <point x="167" y="387" type="line"/>
      <point x="362" y="387" type="line"/>
      <point x="367" y="409" type="line"/>
      <point x="335" y="409" type="line" smooth="yes"/>
      <point x="318" y="409"/>
      <point x="307" y="411"/>
      <point x="301" y="417" type="curve" smooth="yes"/>
      <point x="297" y="422"/>
      <point x="295" y="430"/>
      <point x="298" y="442" type="curve" smooth="yes"/>
      <point x="316" y="532" type="line"/>
      <point x="405" y="532" type="line"/>
      <point x="411" y="557" type="line"/>
      <point x="320" y="557" type="line"/>
      <point x="376" y="819" type="line"/>
      <point x="341" y="819" type="line"/>
      <point x="111" y="554" type="line"/>
      <point x="107" y="532" type="line"/>
      <point x="290" y="532" type="line"/>
      <point x="271" y="447" type="line" smooth="yes"/>
      <point x="264" y="417"/>
      <point x="252" y="409"/>
      <point x="198" y="409" type="curve" smooth="yes"/>
      <point x="170" y="409" type="line"/>
    </contour>
    <contour>
      <point x="146" y="557" type="line"/>
      <point x="253" y="682" type="line" smooth="yes"/>
      <point x="289" y="724"/>
      <point x="327" y="767"/>
      <point x="347" y="789" type="curve"/>
      <point x="338" y="754"/>
      <point x="328" y="711"/>
      <point x="319" y="669" type="curve" smooth="yes"/>
      <point x="294" y="557" type="line"/>
    </contour>
  </outline>
</glyph>
<glyph name="iMatra-tamil.alt01" format="2">
  <advance width="229"/>
  <note>
uni0BBF
</note>
  <anchor x="-21" y="800" name="top"/>
  <outline>
    <contour>
      <point x="37" y="0" type="line"/>
      <point x="66" y="0" type="line"/>
      <point x="178" y="529" type="line" smooth="yes"/>
      <point x="209" y="677"/>
      <point x="138" y="800"/>
      <point x="-21" y="800" type="curve" smooth="yes"/>
      <point x="-151" y="800"/>
      <point x="-217" y="713"/>
      <point x="-217" y="616" type="curve" smooth="yes"/>
      <point x="-217" y="572"/>
      <point x="-203" y="549"/>
      <point x="-188" y="526" type="curve"/>
      <point x="-160" y="526" type="line"/>
      <point x="-178" y="550"/>
      <point x="-191" y="575"/>
      <point x="-191" y="613" type="curve" smooth="yes"/>
      <point x="-191" y="697"/>
      <point x="-134" y="770"/>
      <point x="-22" y="770" type="curve" smooth="yes"/>
      <point x="114" y="770"/>
      <point x="177" y="658"/>
      <point x="147" y="517" type="curve" smooth="yes"/>
    </contour>
  </outline>
</glyph>
<glyph name="iiMatra-tamil.alt02" format="2">
  <note>
uni0BC0
</note>
  <anchor x="-199" y="872" name="top"/>
  <outline>
    <contour>
      <point x="-337" y="518" type="curve"/>
      <point x="-327" y="537" type="line"/>
      <point x="-372" y="563"/>
      <point x="-398" y="605"/>
      <point x="-398" y="670" type="curve" smooth="yes"/>
      <point x="-398" y="768"/>
      <point x="-320" y="850"/>
      <point x="-200" y="850" type="curve" smooth="yes"/>
      <point x="-129" y="850"/>
      <point x="-65" y="817"/>
      <point x="-65" y="744" type="curve" smooth="yes"/>
      <point x="-65" y="687"/>
      <point x="-105" y="645"/>
      <point x="-166" y="645" type="curve" smooth="yes"/>
      <point x="-271" y="645"/>
      <point x="-282" y="754"/>
      <point x="-212" y="855" type="curve"/>
      <point x="-232" y="859" type="line"/>
      <point x="-316" y="748"/>
      <point x="-295" y="622"/>
      <point x="-168" y="622" type="curve" smooth="yes"/>
      <point x="-91" y="622"/>
      <point x="-37" y="670"/>
      <point x="-37" y="748" type="curve" smooth="yes"/>
      <point x="-37" y="830"/>
      <point x="-110" y="872"/>
      <point x="-199" y="872" type="curve" smooth="yes"/>
      <point x="-335" y="872"/>
      <point x="-428" y="778"/>
      <point x="-428" y="669" type="curve" smooth="yes"/>
      <point x="-428" y="598"/>
      <point x="-392" y="545"/>
    </contour>
  </outline>
</glyph>
<glyph name="lii-tamil" format="2">
  <advance width="958"/>
  <note>
g135
</note>
  <anchor x="444" y="0" name="bottom"/>
  <anchor x="444" y="0" name="nukta"/>
  <anchor x="918" y="861" name="top"/>
  <anchor x="612" y="542" name="vedic"/>
  <outline>
    <contour>
      <point x="225" y="-4" type="curve" smooth="yes"/>
      <point x="313" y="-4"/>
      <point x="379" y="55"/>
      <point x="379" y="155" type="curve" smooth="yes"/>
      <point x="379" y="229"/>
      <point x="332" y="283"/>
      <point x="256" y="283" type="curve" smooth="yes"/>
      <point x="162" y="283"/>
      <point x="105" y="208"/>
      <point x="75" y="133" type="curve"/>
      <point x="86" y="108" type="line"/>
      <point x="122" y="188"/>
      <point x="167" y="258"/>
      <point x="249" y="258" type="curve" smooth="yes"/>
      <point x="319" y="258"/>
      <point x="350" y="213"/>
      <point x="350" y="153" type="curve" smooth="yes"/>
      <point x="350" y="72"/>
      <point x="295" y="21"/>
      <point x="227" y="21" type="curve" smooth="yes"/>
      <point x="139" y="21"/>
      <point x="79" y="88"/>
      <point x="79" y="212" type="curve" smooth="yes"/>
      <point x="79" y="369"/>
      <point x="192" y="527"/>
      <point x="376" y="527" type="curve" smooth="yes"/>
      <point x="515" y="527"/>
      <point x="589" y="434"/>
      <point x="561" y="303" type="curve" smooth="yes"/>
      <point x="533" y="170" type="line" smooth="yes"/>
      <point x="512" y="70"/>
      <point x="556" y="-4"/>
      <point x="658" y="-4" type="curve" smooth="yes"/>
      <point x="781" y="-4"/>
      <point x="895" y="93"/>
      <point x="895" y="242" type="curve" smooth="yes"/>
      <point x="895" y="417"/>
      <point x="723" y="493"/>
      <point x="723" y="646" type="curve" smooth="yes"/>
      <point x="723" y="760"/>
      <point x="796" y="839"/>
      <point x="917" y="839" type="curve" smooth="yes"/>
      <point x="996" y="839"/>
      <point x="1047" y="799"/>
      <point x="1047" y="734" type="curve" smooth="yes"/>
      <point x="1047" y="670"/>
      <point x="1007" y="634"/>
      <point x="946" y="634" type="curve" smooth="yes"/>
      <point x="850" y="634"/>
      <point x="838" y="746"/>
      <point x="906" y="844" type="curve"/>
      <point x="887" y="849" type="line"/>
      <point x="805" y="741"/>
      <point x="829" y="611"/>
      <point x="947" y="611" type="curve" smooth="yes"/>
      <point x="1022" y="611"/>
      <point x="1076" y="660"/>
      <point x="1076" y="736" type="curve" smooth="yes"/>
      <point x="1076" y="811"/>
      <point x="1011" y="861"/>
      <point x="918" y="861" type="curve" smooth="yes"/>
      <point x="780" y="861"/>
      <point x="695" y="770"/>
      <point x="695" y="642" type="curve" smooth="yes"/>
      <point x="695" y="481"/>
      <point x="866" y="403"/>
      <point x="866" y="237" type="curve" smooth="yes"/>
      <point x="866" y="109"/>
      <point x="763" y="20"/>
      <point x="659" y="20" type="curve" smooth="yes"/>
      <point x="576" y="20"/>
      <point x="542" y="79"/>
      <point x="561" y="168" type="curve" smooth="yes"/>
      <point x="589" y="301" type="line" smooth="yes"/>
      <point x="620" y="448"/>
      <point x="541" y="551"/>
      <point x="377" y="551" type="curve" smooth="yes"/>
      <point x="168" y="551"/>
      <point x="52" y="380"/>
      <point x="52" y="210" type="curve" smooth="yes"/>
      <point x="52" y="73"/>
      <point x="125" y="-4"/>
    </contour>
  </outline>
</glyph>
<glyph name="muu-tamil" format="2">
  <advance width="1233"/>
  <note>
g126
</note>
  <anchor x="564" y="0" name="bottom"/>
  <anchor x="414" y="-278" name="nukta"/>
  <anchor x="880" y="542" name="top"/>
  <anchor x="879" y="542" name="vedic"/>
  <outline>
    <contour>
      <point x="414" y="-278" type="curve" smooth="yes"/>
      <point x="583" y="-278"/>
      <point x="727" y="-204"/>
      <point x="770" y="-1" type="curve" smooth="yes"/>
      <point x="851" y="378" type="line" smooth="yes"/>
      <point x="872" y="476"/>
      <point x="902" y="527"/>
      <point x="986" y="527" type="curve" smooth="yes"/>
      <point x="1076" y="527"/>
      <point x="1130" y="443"/>
      <point x="1130" y="302" type="curve" smooth="yes"/>
      <point x="1130" y="150"/>
      <point x="1063" y="23"/>
      <point x="947" y="23" type="curve"/>
      <point x="452" y="23" type="line"/>
      <point x="562" y="542" type="line"/>
      <point x="534" y="542" type="line"/>
      <point x="419" y="0" type="line"/>
      <point x="946" y="0" type="line"/>
      <point x="1084" y="0"/>
      <point x="1159" y="131"/>
      <point x="1159" y="304" type="curve" smooth="yes"/>
      <point x="1159" y="459"/>
      <point x="1096" y="551"/>
      <point x="986" y="551" type="curve" smooth="yes"/>
      <point x="885" y="551"/>
      <point x="845" y="486"/>
      <point x="822" y="378" type="curve" smooth="yes"/>
      <point x="742" y="0" type="line"/>
      <point x="704" y="-181"/>
      <point x="562" y="-252"/>
      <point x="418" y="-252" type="curve" smooth="yes"/>
      <point x="211" y="-252"/>
      <point x="66" y="-105"/>
      <point x="66" y="127" type="curve" smooth="yes"/>
      <point x="66" y="287"/>
      <point x="157" y="524"/>
      <point x="294" y="524" type="curve" smooth="yes"/>
      <point x="342" y="524"/>
      <point x="370" y="498"/>
      <point x="370" y="452" type="curve" smooth="yes"/>
      <point x="370" y="336"/>
      <point x="231" y="302"/>
      <point x="105" y="353" type="curve"/>
      <point x="93" y="333" type="line"/>
      <point x="224" y="270"/>
      <point x="402" y="311"/>
      <point x="402" y="455" type="curve" smooth="yes"/>
      <point x="402" y="514"/>
      <point x="361" y="551"/>
      <point x="298" y="551" type="curve" smooth="yes"/>
      <point x="138" y="551"/>
      <point x="37" y="306"/>
      <point x="37" y="120" type="curve" smooth="yes"/>
      <point x="37" y="-120"/>
      <point x="190" y="-278"/>
    </contour>
  </outline>
</glyph>
<glyph name="puu-tamil" format="2">
  <advance width="963"/>
  <note>
g124
</note>
  <anchor x="400" y="0" name="bottom"/>
  <anchor x="332" y="-363" name="nukta"/>
  <anchor x="474" y="542" name="top"/>
  <anchor x="557" y="542" name="vedic"/>
  <outline>
    <contour>
      <point x="332" y="-363" type="curve" smooth="yes"/>
      <point x="598" y="-363"/>
      <point x="869" y="-229"/>
      <point x="869" y="-9" type="curve" smooth="yes"/>
      <point x="869" y="57"/>
      <point x="829" y="87"/>
      <point x="781" y="87" type="curve" smooth="yes"/>
      <point x="728" y="87"/>
      <point x="684" y="46"/>
      <point x="661" y="-29" type="curve"/>
      <point x="675" y="-39" type="line"/>
      <point x="691" y="25"/>
      <point x="733" y="60"/>
      <point x="778" y="60" type="curve" smooth="yes"/>
      <point x="813" y="60"/>
      <point x="839" y="39"/>
      <point x="839" y="-9" type="curve" smooth="yes"/>
      <point x="839" y="-214"/>
      <point x="577" y="-336"/>
      <point x="331" y="-336" type="curve" smooth="yes"/>
      <point x="183" y="-336"/>
      <point x="68" y="-298"/>
      <point x="68" y="-212" type="curve" smooth="yes"/>
      <point x="68" y="-82"/>
      <point x="273" y="-85"/>
      <point x="429" y="-150" type="curve"/>
      <point x="441" y="-125" type="line"/>
      <point x="264" y="-54"/>
      <point x="39" y="-61"/>
      <point x="39" y="-215" type="curve" smooth="yes"/>
      <point x="39" y="-316"/>
      <point x="168" y="-363"/>
    </contour>
    <contour>
      <point x="63" y="0" type="line"/>
      <point x="670" y="0" type="line"/>
      <point x="675" y="23" type="line"/>
      <point x="96" y="23" type="line"/>
      <point x="206" y="542" type="line"/>
      <point x="178" y="542" type="line"/>
    </contour>
    <contour>
      <point x="621" y="-161" type="line"/>
      <point x="650" y="-161" type="line"/>
      <point x="799" y="542" type="line"/>
      <point x="771" y="542" type="line"/>
    </contour>
  </outline>
</glyph>
<glyph name="yii-tamil" format="2">
  <advance width="919"/>
  <note>
g127
</note>
  <anchor x="397" y="0" name="bottom"/>
  <anchor x="397" y="0" name="nukta"/>
  <anchor x="890" y="872" name="top"/>
  <anchor x="519" y="542" name="vedic"/>
  <anchor x="842" y="542" name="imatra"/>
  <outline>
    <contour>
      <point x="814" y="521" type="curve" smooth="yes"/>
      <point x="835" y="521" type="line"/>
      <point x="839" y="542" type="line"/>
      <point x="819" y="542" type="line" smooth="yes"/>
      <point x="740" y="542"/>
      <point x="687" y="590"/>
      <point x="687" y="668" type="curve" smooth="yes"/>
      <point x="687" y="768"/>
      <point x="769" y="850"/>
      <point x="889" y="850" type="curve" smooth="yes"/>
      <point x="960" y="850"/>
      <point x="1027" y="817"/>
      <point x="1027" y="744" type="curve" smooth="yes"/>
      <point x="1027" y="687"/>
      <point x="990" y="645"/>
      <point x="926" y="645" type="curve" smooth="yes"/>
      <point x="824" y="645"/>
      <point x="807" y="754"/>
      <point x="877" y="855" type="curve"/>
      <point x="857" y="859" type="line"/>
      <point x="773" y="748"/>
      <point x="800" y="622"/>
      <point x="924" y="622" type="curve" smooth="yes"/>
      <point x="1004" y="622"/>
      <point x="1055" y="670"/>
      <point x="1055" y="748" type="curve" smooth="yes"/>
      <point x="1055" y="830"/>
      <point x="979" y="872"/>
      <point x="890" y="872" type="curve" smooth="yes"/>
      <point x="754" y="872"/>
      <point x="657" y="779"/>
      <point x="657" y="667" type="curve" smooth="yes"/>
      <point x="657" y="580"/>
      <point x="721" y="521"/>
    </contour>
    <component base="ya-tamil"/>
  </outline>
</glyph>
